<svg width="58" height="63" viewBox="0 0 58 63" fill="none" xmlns="http://www.w3.org/2000/svg">
<g id="Calque 1-2">
<g id="Group">
<path id="Vector" d="M39.8877 47.7493C44.5094 43.8233 47.4371 38.0001 47.4371 31.5C47.4371 24.9999 44.5094 19.1767 39.8877 15.2507C36.1029 12.0359 31.1827 10.093 25.8037 10.093H11.7549C13.5513 4.25104 19.0382 0 25.5288 0H25.6679C43.2484 0 57.5001 14.103 57.5001 31.5C57.5001 48.897 43.2484 63 25.6679 63H25.5288C19.0382 63 13.552 58.749 11.7556 52.9076H25.8043C31.1833 52.9076 36.1036 50.9648 39.8884 47.75H39.8877V47.7493Z" fill="url(#paint0_linear_44_800)"/>
<path id="Vector_2" d="M8.98519 0H25.714C19.2233 0 13.7371 4.25104 11.9407 10.0924H11.9007V52.9076H11.9407C13.7371 58.749 19.2233 63 25.714 63H8.98519C4.29909 63 0.5 59.2406 0.5 54.6034V8.39664C0.5 3.75945 4.29909 0 8.98519 0Z" fill="url(#paint1_linear_44_800)"/>
</g>
</g>
<defs>
<linearGradient id="paint0_linear_44_800" x1="34.5617" y1="-0.014103" x2="34.658" y2="62.9866" gradientUnits="userSpaceOnUse">
<stop stop-color="#B9A7FF"/>
<stop offset="1" stop-color="#4206AC"/>
</linearGradient>
<linearGradient id="paint1_linear_44_800" x1="13.0693" y1="3.14496" x2="13.1577" y2="60.7247" gradientUnits="userSpaceOnUse">
<stop stop-color="#D6CEFF"/>
<stop offset="1" stop-color="#240070"/>
</linearGradient>
</defs>
</svg>
